<?xml version="1.0" encoding="utf-8"?>
<!-- Generator: Adobe Illustrator 15.0.0, SVG Export Plug-In . SVG Version: 6.00 Build 0)  -->
<!DOCTYPE svg PUBLIC "-//W3C//DTD SVG 1.0//EN" "http://www.w3.org/TR/2001/REC-SVG-20010904/DTD/svg10.dtd">
<svg version="1.0" id="Layer_1" xmlns="http://www.w3.org/2000/svg" xmlns:xlink="http://www.w3.org/1999/xlink" x="0px" y="0px"
	 width="38.842px" height="56.66px" viewBox="0 0 38.842 56.66" enable-background="new 0 0 38.842 56.66" xml:space="preserve">
<path d="M104.646,10.4h-0.824c-1.275,0-1.587,0.336-1.587,1.1v0.097c0,0.728,0.337,0.92,0.987,0.92c0.491,0,0.961-0.157,1.424-0.409
	V10.4z M107.047,12.879c0.136,0.044,0.24,0.174,0.24,0.312c0,0.131,0,0.059,0,0.059c0,0.132-0.107,0.24-0.24,0.24h-2.033
	c-0.13,0-0.244-0.108-0.247-0.24l-0.011-0.269c-0.54,0.345-1.205,0.6-1.83,0.6c-1.011,0-2.021-0.415-2.021-1.978v-0.097
	c0-1.334,0.801-2.014,2.916-2.014h0.824V8.987c0-0.896-0.349-1.166-1.173-1.166c-0.775,0-1.452,0.058-1.893,0.091l-0.059,0.004
	c-0.115,0.009-0.224-0.035-0.224-0.198V7.124c0-0.133,0.078-0.211,0.238-0.24c0.488-0.091,1.113-0.176,1.937-0.176
	c1.689,0,2.495,0.8,2.495,2.279v3.544L107.047,12.879z M74.565,12.362c0.115-0.007,0.224,0.059,0.224,0.178v0.608
	c0,0.174-0.047,0.247-0.247,0.288c-0.336,0.072-0.878,0.145-1.527,0.145c-1.599,0-2.65-1.059-2.65-2.922V9.631
	c0-1.864,1.046-2.923,2.65-2.923c0.644,0,1.191,0.073,1.527,0.145c0.199,0.043,0.247,0.109,0.247,0.29v0.606
	c0,0.121-0.104,0.186-0.218,0.179L74.53,7.927c-0.507-0.024-0.828-0.081-1.514-0.081c-0.763,0-1.329,0.48-1.329,1.785v1.028
	c0,1.298,0.56,1.785,1.329,1.785c0.686,0,1.008-0.042,1.509-0.078L74.565,12.362z M99.393,12.362
	c0.114-0.007,0.222,0.059,0.222,0.178v0.608c0,0.174-0.048,0.247-0.247,0.288c-0.337,0.072-0.878,0.145-1.527,0.145
	c-1.599,0-2.651-1.059-2.651-2.922V9.631c0-1.864,1.047-2.923,2.651-2.923c0.644,0,1.19,0.073,1.527,0.145
	c0.199,0.043,0.247,0.109,0.247,0.29v0.606c0,0.121-0.104,0.186-0.218,0.179l-0.042-0.001c-0.508-0.024-0.828-0.081-1.515-0.081
	c-0.763,0-1.327,0.48-1.327,1.785v1.028c0,1.298,0.559,1.785,1.327,1.785c0.687,0,1.007-0.042,1.509-0.078L99.393,12.362z
	 M61.425,25.345c0-1.106-0.47-1.814-1.455-1.814c-0.98,0-1.448,0.704-1.448,1.814v0.944c0,1.106,0.462,1.816,1.448,1.816
	c0.98,0,1.455-0.704,1.455-1.816V25.345z M59.97,29.253c-1.828,0-2.771-1.221-2.771-2.965v-0.944c0-1.743,0.943-2.964,2.771-2.964
	c1.829,0,2.778,1.221,2.778,2.964v0.944C62.748,28.032,61.799,29.253,59.97,29.253z M64.859,23.48l-1.361-0.41
	c-0.131-0.047-0.234-0.147-0.234-0.279v-0.097c0-0.132,0.103-0.228,0.234-0.228h1.361v-0.727c0-1.419,0.727-1.798,1.881-1.798
	c0.308,0,0.506,0.038,0.699,0.084c0.114,0.027,0.222,0.084,0.222,0.191v0.553c0,0.139-0.09,0.192-0.199,0.192h-0.56
	c-0.57,0-0.721,0.15-0.721,0.776v0.727h1.209c0.131,0,0.234,0.103,0.234,0.228v0.595c0,0.127-0.103,0.217-0.234,0.217h-1.209v5.411
	c0,0.126-0.109,0.247-0.235,0.247h-0.841c-0.133,0-0.247-0.121-0.247-0.247V23.48z M108.419,5.362l-1.238-0.365
	c-0.146-0.043-0.233-0.152-0.233-0.284c0-0.132,0-0.077,0-0.077c0-0.132,0.101-0.242,0.233-0.242h2.338
	c0.126,0,0.223,0.102,0.223,0.235v8.614c0,0.126-0.09,0.247-0.223,0.247h-0.871c-0.127,0-0.229-0.114-0.229-0.247V5.362z
	 M76.419,5.362l-1.25-0.365c-0.147-0.043-0.235-0.152-0.235-0.284c0-0.132,0-0.077,0-0.077c0-0.132,0.103-0.242,0.235-0.242h2.338
	c0.132,0,0.232,0.109,0.232,0.242v2.482c0.518-0.265,1.143-0.41,1.829-0.41c1.467,0,2.158,0.958,2.158,2.58v3.956
	c0,0.132-0.107,0.247-0.24,0.247h-0.842c-0.132,0-0.24-0.114-0.24-0.247V9.288c0-1.125-0.342-1.442-1.137-1.442
	c-0.39,0-1.01,0.119-1.527,0.373v5.025c0,0.126-0.107,0.247-0.239,0.247h-0.849c-0.125,0-0.234-0.114-0.234-0.247V5.362z
	 M93.007,5.813h-0.889c-0.132,0-0.247-0.108-0.247-0.241v-1.01c0-0.132,0.115-0.24,0.247-0.24h0.889c0.133,0,0.242,0.108,0.242,0.24
	v1.01C93.249,5.705,93.14,5.813,93.007,5.813z M91.901,7.761l-1.256-0.366c-0.146-0.043-0.234-0.153-0.234-0.284
	c0-0.131,0-0.077,0-0.077c0-0.134,0.104-0.241,0.234-0.241h2.339c0.133,0,0.24,0.107,0.24,0.24v6.211
	c0,0.132-0.107,0.247-0.24,0.247h-0.841c-0.133,0-0.242-0.114-0.242-0.247V7.761z M84.165,7.761L83.03,7.402
	c-0.147-0.046-0.235-0.16-0.235-0.291c0-0.131,0-0.077,0-0.077c0-0.134,0.102-0.241,0.235-0.241h2.119
	c0.133,0,0.239,0.107,0.243,0.24L85.4,7.314c0.732-0.451,1.235-0.606,1.987-0.606c1.624,0,2.086,1.121,2.086,2.457v4.079
	c0,0.132-0.108,0.247-0.241,0.247h-0.841c-0.133,0-0.24-0.114-0.24-0.247V9.306c0-1.131-0.253-1.467-1.173-1.467
	c-0.456,0-0.961,0.181-1.49,0.45v4.954c0,0.126-0.108,0.247-0.241,0.247H84.4c-0.126,0-0.235-0.114-0.235-0.247V7.761z
	 M63.272,5.723h-2.225v7.527c0,0.126-0.096,0.24-0.229,0.24h-0.925c-0.126,0-0.229-0.108-0.229-0.24V5.723h-2.223
	c-0.133,0-0.242-0.072-0.242-0.205V4.779c0-0.127,0.108-0.223,0.242-0.223h5.831c0.133,0,0.234,0.091,0.234,0.223v0.739
	C63.506,5.644,63.405,5.723,63.272,5.723z M154.62,12.358c0.58,0.028,1.547,0.128,1.944,0.128c0.763,0,1.021-0.229,1.021-0.715
	c0-0.294-0.18-0.481-0.715-0.806l-1.43-0.866c-0.661-0.402-1.119-0.962-1.119-1.689c0-1.227,0.848-1.702,2.231-1.702
	c0.821,0,1.419,0.084,2.008,0.199c0.149,0.03,0.222,0.121,0.222,0.259v0.548c0,0.144-0.078,0.216-0.199,0.216
	c-0.018,0-0.029,0-0.042,0c-0.381-0.021-1.243-0.12-1.923-0.12c-0.625,0-0.975,0.108-0.975,0.601c0,0.277,0.229,0.451,0.654,0.704
	l1.383,0.835c1.006,0.602,1.238,1.161,1.238,1.823c0,1.136-0.84,1.81-2.301,1.81c-0.457,0-1.395-0.053-2.027-0.211
	c-0.147-0.037-0.238-0.12-0.238-0.258V12.54c0-0.102,0.098-0.191,0.219-0.185L154.62,12.358z M138.153,12.168
	c0.064,0.258,0.133,0.324,0.24,0.324c0.098,0,0.176-0.063,0.242-0.324l1.268-5.14c0.033-0.136,0.133-0.235,0.24-0.235h0.932
	c0.141,0,0.223,0.122,0.18,0.283l-1.568,5.597c-0.201,0.718-0.727,0.909-1.293,0.909c-0.637,0-1.1-0.245-1.287-0.909l-1.568-5.597
	c-0.041-0.15,0.031-0.283,0.181-0.283h0.932c0.103,0,0.196,0.081,0.235,0.235L138.153,12.168z M133.679,5.813h-0.891
	c-0.132,0-0.247-0.108-0.247-0.241v-1.01c0-0.132,0.115-0.24,0.247-0.24h0.891c0.131,0,0.238,0.108,0.238,0.24v1.01
	C133.917,5.705,133.81,5.813,133.679,5.813z M132.565,7.761l-1.255-0.366c-0.147-0.043-0.236-0.153-0.236-0.284
	c0-0.131,0-0.077,0-0.077c0-0.134,0.104-0.241,0.236-0.241h2.337c0.132,0,0.242,0.107,0.242,0.24v6.211
	c0,0.132-0.11,0.247-0.242,0.247h-0.841c-0.133,0-0.241-0.114-0.241-0.247V7.761z M162.401,5.813h-0.891
	c-0.131,0-0.246-0.108-0.246-0.241v-1.01c0-0.132,0.115-0.24,0.246-0.24h0.891c0.132,0,0.24,0.108,0.24,0.24v1.01
	C162.642,5.705,162.533,5.813,162.401,5.813z M161.288,7.761l-1.254-0.366c-0.147-0.043-0.236-0.153-0.236-0.284
	c0-0.131,0-0.077,0-0.077c0-0.134,0.104-0.241,0.236-0.241h2.337c0.132,0,0.241,0.107,0.241,0.24v6.211
	c0,0.132-0.109,0.247-0.241,0.247h-0.843c-0.131,0-0.24-0.114-0.24-0.247V7.761z M124.692,7.761l-1.25-0.366
	c-0.145-0.043-0.234-0.153-0.234-0.284c0-0.131,0-0.077,0-0.077c0-0.134,0.102-0.241,0.234-0.241h2.232
	c0.133,0,0.238,0.107,0.243,0.24l0.011,0.281c0.73-0.451,1.234-0.606,1.986-0.606c1.625,0,2.086,1.121,2.086,2.457v4.079
	c0,0.132-0.107,0.247-0.24,0.247h-0.842c-0.133,0-0.24-0.114-0.24-0.247V9.306c0-1.131-0.252-1.467-1.172-1.467
	c-0.458,0-0.963,0.181-1.493,0.45v4.954c0,0.126-0.106,0.247-0.237,0.247h-0.85c-0.125,0-0.234-0.114-0.234-0.247V7.761z
	 M151.068,6.793c0.133,0,0.237,0.107,0.243,0.24l0.01,0.292c0.676-0.492,1.254-0.617,1.764-0.617c0.15,0,0.246,0.092,0.246,0.229
	v0.679c0,0.132-0.096,0.223-0.246,0.223c-0.601,0-1.107,0.156-1.658,0.469v4.936c0,0.126-0.109,0.247-0.24,0.247h-0.85
	c-0.125,0-0.232-0.114-0.232-0.247V7.761l-1.207-0.366c-0.146-0.043-0.235-0.153-0.235-0.284c0-0.131,0-0.077,0-0.077
	c0-0.134,0.103-0.241,0.235-0.241H151.068z M118.894,13.581c-1.941,0-3.191-0.938-3.191-3.367V4.785
	c0-0.126,0.101-0.229,0.233-0.229h0.92c0.126,0,0.235,0.096,0.235,0.229v5.429c0,1.46,0.408,2.207,1.803,2.207
	c1.396,0,1.803-0.74,1.803-2.207V4.785c0-0.126,0.104-0.229,0.235-0.229h0.921c0.126,0,0.233,0.096,0.233,0.229v5.429
	C122.086,12.643,120.836,13.581,118.894,13.581z M165.523,7.772l-1.275-0.375c-0.133-0.046-0.235-0.147-0.235-0.279V7.021
	c0-0.132,0.103-0.229,0.235-0.229h1.275V5.71c0-0.116,0.091-0.217,0.229-0.24l0.872-0.144c0.114-0.02,0.229,0.057,0.229,0.192v1.275
	h1.189c0.133,0,0.24,0.107,0.24,0.24v0.56c0,0.132-0.107,0.24-0.24,0.24h-1.189v3.987c0,0.631,0.102,0.715,0.56,0.715h0.655
	c0.162,0,0.25,0.054,0.25,0.174v0.589c0,0.115-0.064,0.186-0.221,0.21c-0.264,0.042-0.553,0.073-0.8,0.073
	c-1.231,0-1.773-0.294-1.773-1.761V7.772z M109.364,26.073h-0.824c-1.275,0-1.588,0.336-1.588,1.1v0.096
	c0,0.728,0.338,0.92,0.986,0.92c0.494,0,0.963-0.157,1.426-0.409V26.073z M111.767,28.552c0.133,0.044,0.24,0.174,0.24,0.312
	c0,0.13,0,0.06,0,0.06c0,0.132-0.109,0.24-0.24,0.24h-2.033c-0.133,0-0.244-0.108-0.25-0.24l-0.009-0.27
	c-0.542,0.344-1.205,0.6-1.831,0.6c-1.01,0-2.02-0.415-2.02-1.978v-0.097c0-1.334,0.799-2.015,2.916-2.015h0.824v-0.505
	c0-0.895-0.35-1.165-1.172-1.165c-0.776,0-1.453,0.058-1.895,0.09l-0.061,0.004c-0.113,0.009-0.223-0.035-0.223-0.197v-0.594
	c0-0.133,0.078-0.211,0.24-0.24c0.486-0.091,1.113-0.176,1.938-0.176c1.688,0,2.494,0.8,2.494,2.278v3.544L111.767,28.552z
	 M95.69,23.434l-1.279-0.366c-0.146-0.043-0.234-0.153-0.234-0.285c0-0.131,0-0.077,0-0.077c0-0.133,0.104-0.241,0.234-0.241h2.264
	c0.133,0,0.237,0.107,0.242,0.24l0.01,0.281c0.549-0.355,1.109-0.611,1.795-0.611c0.601,0,1.015,0.174,1.305,0.517
	c0.637-0.324,1.262-0.517,1.988-0.517c1.207,0,1.973,0.687,1.973,2.227v4.314c0,0.132-0.108,0.247-0.24,0.247h-0.842
	c-0.131,0-0.24-0.115-0.24-0.247v-4.172c0-0.967-0.331-1.226-0.98-1.226c-0.33,0-0.811,0.108-1.262,0.312
	c0.053,0.265,0.078,0.571,0.078,0.902v4.185c0,0.126-0.096,0.247-0.229,0.247H99.4c-0.126,0-0.223-0.115-0.223-0.247v-4.185
	c0-0.986-0.228-1.214-0.878-1.214c-0.344,0-0.787,0.174-1.287,0.433v4.966c0,0.126-0.096,0.247-0.229,0.247h-0.869
	c-0.127,0-0.225-0.115-0.225-0.247V23.434z M87.946,23.434l-1.25-0.366c-0.146-0.043-0.233-0.153-0.233-0.285
	c0-0.131,0-0.077,0-0.077c0-0.133,0.101-0.241,0.233-0.241h2.233c0.133,0,0.238,0.107,0.242,0.24l0.011,0.281
	c0.73-0.451,1.234-0.606,1.985-0.606c1.627,0,2.087,1.121,2.087,2.457v4.079c0,0.132-0.107,0.247-0.24,0.247h-0.841
	c-0.133,0-0.24-0.115-0.24-0.247v-3.938c0-1.131-0.253-1.467-1.174-1.467c-0.457,0-0.961,0.181-1.49,0.451v4.954
	c0,0.126-0.107,0.247-0.24,0.247h-0.848c-0.126,0-0.235-0.115-0.235-0.247V23.434z M114.342,22.466c0.134,0,0.239,0.107,0.243,0.24
	l0.012,0.292c0.676-0.492,1.254-0.617,1.764-0.617c0.15,0,0.246,0.091,0.246,0.229v0.679c0,0.132-0.096,0.223-0.246,0.223
	c-0.602,0-1.107,0.156-1.659,0.469v4.936c0,0.126-0.108,0.247-0.24,0.247h-0.849c-0.127,0-0.234-0.115-0.234-0.247v-5.482
	l-1.207-0.366c-0.146-0.043-0.234-0.153-0.234-0.285c0-0.131,0-0.077,0-0.077c0-0.133,0.102-0.241,0.234-0.241H114.342z
	 M169.533,15.646c-0.144-0.014-0.249-0.134-0.249-0.263c0-0.066,0-0.012,0-0.078c0-0.131,0.102-0.24,0.249-0.262l1.745-0.246
	c0.482-0.069,0.742-0.23,0.908-0.879l0.107-0.428h-0.174c-0.354,0-0.728-0.084-0.969-0.914l-1.586-5.501
	c-0.045-0.15,0.02-0.283,0.209-0.283h0.938c0.104,0,0.191,0.104,0.218,0.205l1.316,5.056c0.054,0.223,0.12,0.265,0.198,0.265h0.15
	l1.383-5.333c0.027-0.102,0.12-0.192,0.234-0.192h0.949c0.171,0,0.229,0.156,0.192,0.283c-0.099,0.351-1.995,6.974-1.995,6.974
	c-0.281,0.979-0.558,1.258-0.973,1.512c-0.406,0.25-0.868,0.282-1.817,0.188L169.533,15.646z M118.187,21.035l-1.256-0.365
	c-0.146-0.043-0.234-0.152-0.234-0.285c0-0.131,0-0.077,0-0.077c0-0.132,0.102-0.241,0.234-0.241h2.339
	c0.13,0,0.24,0.109,0.24,0.241v5.15l2.262-2.866c0.075-0.097,0.159-0.126,0.255-0.126h1.082c0.119,0,0.182,0.054,0.182,0.132
	c0.002,0.042-0.015,0.084-0.051,0.126l-2.44,2.898l2.713,3.289c0.026,0.029,0.04,0.065,0.041,0.101
	c0.003,0.079-0.054,0.151-0.145,0.151h-1.239c-0.132,0-0.231-0.085-0.318-0.199l-2.341-2.991v2.943c0,0.132-0.11,0.247-0.24,0.247
	h-0.844c-0.132,0-0.239-0.115-0.239-0.247V21.035z M77.446,24.189c0-1.16-0.152-1.877-0.667-2.354
	c-0.418-0.387-1.003-0.524-1.665-0.524c-0.505,0-0.849,0.019-1.173,0.036v6.703c0.318,0.018,0.668,0.03,1.173,0.03
	c0.688,0,1.294-0.149,1.715-0.576c0.485-0.489,0.617-1.177,0.617-2.303V24.189z M77.883,28.339
	c-0.639,0.629-1.601,0.915-2.769,0.915c-0.883,0-1.924-0.072-2.278-0.132c-0.18-0.03-0.284-0.128-0.284-0.337v-8.176
	c0-0.204,0.104-0.306,0.284-0.336c0.354-0.062,1.395-0.132,2.278-0.132c1.158,0,2.113,0.276,2.751,0.893
	c0.759,0.732,0.958,1.738,0.958,3.1v1.127C78.823,26.605,78.63,27.6,77.883,28.339z M84.516,25.212c0-1.16-0.518-1.701-1.418-1.701
	c-0.891,0-1.449,0.565-1.449,1.701v0.08h2.868V25.212z M85.412,27.981c0.107-0.008,0.215,0.051,0.215,0.172v0.601
	c0,0.173-0.041,0.257-0.247,0.294c-0.733,0.134-1.297,0.205-2.241,0.205c-1.67,0-2.819-0.933-2.819-3.236v-0.418
	c0-1.798,0.695-3.218,2.778-3.218c2.106,0,2.752,1.468,2.752,3.218v0.378c0,0.174-0.079,0.282-0.235,0.282h-3.973v0.102
	c0,1.064,0.427,1.744,1.557,1.744c0.787,0,1.625-0.075,2.165-0.12L85.412,27.981z M146.587,9.54c0-1.16-0.516-1.701-1.417-1.701
	c-0.891,0-1.449,0.564-1.449,1.701v0.079h2.866V9.54z M147.483,12.309c0.109-0.009,0.217,0.051,0.217,0.171v0.602
	c0,0.174-0.043,0.257-0.246,0.294c-0.734,0.134-1.299,0.205-2.242,0.205c-1.672,0-2.82-0.933-2.82-3.236V9.926
	c0-1.798,0.697-3.218,2.778-3.218c2.106,0,2.754,1.468,2.754,3.218v0.378c0,0.174-0.079,0.282-0.235,0.282h-3.975v0.102
	c0,1.064,0.428,1.744,1.557,1.744c0.789,0,1.625-0.075,2.166-0.119L147.483,12.309z M67.494,9.54c0-1.16-0.518-1.701-1.418-1.701
	c-0.891,0-1.448,0.564-1.448,1.701v0.079h2.866V9.54z M68.391,12.309c0.107-0.009,0.216,0.051,0.216,0.171v0.602
	c0,0.174-0.043,0.257-0.248,0.294c-0.733,0.134-1.297,0.205-2.241,0.205c-1.673,0-2.82-0.933-2.82-3.236V9.926
	c0-1.798,0.697-3.218,2.778-3.218c2.106,0,2.752,1.468,2.752,3.218v0.378c0,0.174-0.078,0.282-0.234,0.282h-3.973v0.102
	c0,1.064,0.427,1.744,1.556,1.744c0.786,0,1.625-0.075,2.165-0.119L68.391,12.309z"/>
<g>
	<path fill="#999999" d="M21.1,20.144c0,0.156-0.045,0.249-0.114,0.318c-0.069,0.068-0.163,0.115-0.317,0.115h-2.636
		c-0.155,0-0.249-0.046-0.317-0.115c-0.069-0.069-0.114-0.162-0.114-0.318V2.6h-3.096c-0.156,0-0.249-0.045-0.318-0.114
		c-0.069-0.067-0.115-0.163-0.115-0.317V0.432c0-0.156,0.046-0.249,0.115-0.317C14.257,0.045,14.35,0,14.506,0h9.69
		c0.154,0,0.249,0.045,0.318,0.115c0.068,0.068,0.115,0.161,0.115,0.317v1.737c0,0.154-0.047,0.25-0.115,0.317
		C24.445,2.555,24.35,2.6,24.196,2.6H21.1V20.144z M36.66,0.432c0-0.156-0.047-0.249-0.116-0.317C36.477,0.045,36.381,0,36.228,0
		h-2.41c-0.155,0-0.249,0.045-0.317,0.115c-0.068,0.068-0.115,0.161-0.115,0.317v14.552c0,1.519-0.115,2.422-0.608,2.964
		c-0.335,0.367-0.808,0.547-1.472,0.547c-0.601,0-1.058-0.167-1.406-0.55c-0.466-0.514-0.609-1.388-0.609-2.961V0.432
		c0-0.156-0.046-0.249-0.115-0.317C29.108,0.045,29.013,0,28.857,0H26.45c-0.156,0-0.249,0.045-0.318,0.115
		c-0.069,0.068-0.114,0.161-0.114,0.317V14.99c0,2.118,0.287,3.448,1.129,4.372c0.875,0.963,2.197,1.475,4.202,1.475
		c2.026,0,3.333-0.542,4.135-1.476c0.943-1.098,1.176-2.404,1.176-4.371V0.432z M5.34,2.406h1.818c0.804,0,1.282,0.131,1.654,0.576
		C9.384,3.669,9.434,5.055,9.434,7.85v4.875c0,2.796-0.05,4.183-0.622,4.868C8.44,18.04,7.962,18.17,7.158,18.17H5.34V2.406z M2.5,0
		C2.346,0,2.25,0.045,2.184,0.115C2.115,0.183,2.069,0.276,2.069,0.432v19.711c0,0.156,0.046,0.249,0.115,0.318
		C2.25,20.53,2.346,20.576,2.5,20.576h5.156c2.002,0,3.224-0.457,3.965-1.414c1.093-1.31,1.127-3.422,1.127-6.663V8.076
		c0-3.239-0.035-5.351-1.127-6.661C10.88,0.456,9.659,0,7.657,0H2.5z"/>
	<path fill="#990000" d="M38.842,52.322l-8.267,4.338c-10.704-4.162-11.606-4.162-22.311,0L0,52.322l8.265-4.338
		c10.705,4.163,11.607,4.163,22.311,0L38.842,52.322 M38.842,41.597l-8.267,4.338c-10.704-4.162-11.606-4.162-22.311,0L0,41.597
		l8.265-4.339c10.705,4.163,11.607,4.163,22.311,0L38.842,41.597z M38.842,30.873l-8.267,4.338c-10.704-4.162-11.606-4.162-22.311,0
		L0,30.873l8.265-4.34c10.705,4.165,11.607,4.165,22.311,0L38.842,30.873z"/>
</g>
</svg>
